<!DOCTYPE svg PUBLIC "-//W3C//DTD SVG 1.1//EN" "http://www.w3.org/Graphics/SVG/1.1/DTD/svg11.dtd">

<!-- Uploaded to: SVG Repo, www.svgrepo.com, Transformed by: SVG Repo Mixer Tools -->
<svg height="800px" width="800px" version="1.1" id="Capa_1" xmlns="http://www.w3.org/2000/svg" xmlns:xlink="http://www.w3.org/1999/xlink" viewBox="0 0 372.184 372.184" xml:space="preserve" fill="#fff700" stroke="#fff700" transform="matrix(1, 0, 0, 1, 0, 0)">

<g id="SVGRepo_bgCarrier" stroke-width="0"/>

<g id="SVGRepo_tracerCarrier" stroke-linecap="round" stroke-linejoin="round"/>

<g id="SVGRepo_iconCarrier"> <g> <path style="fill:#ffe200;" d="M186.092,0c84.497,0,155.884,32.448,155.884,70.857s-71.394,70.857-155.884,70.857 c-84.497,0-155.884-32.448-155.884-70.857S101.589,0,186.092,0z"/> <path style="fill:#ffe200;" d="M341.976,301.327c0,38.409-71.394,70.857-155.884,70.857c-84.497,0-155.884-32.448-155.884-70.857 v-45.641c24.488,30.526,84.258,51.607,155.884,51.607s131.396-21.075,155.884-51.607V301.327z"/> <path style="fill:#ffe200;" d="M341.976,224.503c0,38.409-71.394,70.857-155.884,70.857c-84.497,0-155.884-32.448-155.884-70.857 v-45.641c24.488,30.532,84.264,51.607,155.884,51.607s131.396-21.075,155.884-51.607V224.503z"/> <path style="fill:#ffe200;" d="M341.976,147.68c0,38.409-71.394,70.857-155.884,70.857c-84.497,0-155.884-32.448-155.884-70.857 v-45.647c24.488,30.538,84.264,51.613,155.884,51.613s131.396-21.075,155.884-51.613V147.68z"/> </g> </g>

</svg>